<svg width="1183" height="253" viewBox="0 0 1183 253" fill="none" xmlns="http://www.w3.org/2000/svg">
    <g filter="url(#filter0_dd_1530_158)">
        <path
            d="M222.219 122.04C222.219 138.467 220.405 151.587 216.779 161.4C213.152 171.213 207.712 178.573 200.459 183.48C193.205 188.173 184.032 191.373 172.939 193.08C162.059 194.573 149.259 195.32 134.539 195.32C126.005 195.32 117.685 195.32 109.579 195.32C101.685 195.32 94.1121 195.213 86.8588 195C79.6054 195 72.7788 195 66.3788 195C60.1921 195 54.7521 195 50.0588 195V68.6C50.0588 61.3467 51.3388 56.12 53.8988 52.92C56.4588 49.72 61.6854 48.0133 69.5788 47.8C74.4854 47.8 80.0321 47.8 86.2188 47.8C92.4054 47.5867 98.6988 47.48 105.099 47.48C111.712 47.48 118.219 47.48 124.619 47.48C131.232 47.48 137.099 47.48 142.219 47.48C156.085 47.6933 168.032 48.76 178.059 50.68C188.299 52.6 196.619 56.12 203.019 61.24C209.632 66.36 214.432 73.8267 217.419 83.64C220.619 93.24 222.219 106.04 222.219 122.04ZM92.6188 172.92C94.5388 172.92 97.0988 172.92 100.299 172.92C103.712 172.92 107.232 173.027 110.859 173.24C114.699 173.24 118.432 173.24 122.059 173.24C125.685 173.24 128.672 173.24 131.019 173.24C139.765 173.24 147.125 172.6 153.099 171.32C159.285 170.04 164.192 167.587 167.819 163.96C171.445 160.12 174.112 154.893 175.819 148.28C177.525 141.453 178.379 132.813 178.379 122.36C178.379 107.64 176.885 96.5467 173.899 89.08C170.912 81.4 166.005 76.28 159.179 73.72C152.352 70.9467 142.859 69.56 130.699 69.56C127.925 69.56 124.299 69.56 119.819 69.56C115.339 69.56 110.965 69.6667 106.699 69.88C102.432 69.88 98.8054 69.9867 95.8188 70.2C94.9654 71.2667 94.2188 72.5467 93.5788 74.04C92.9388 75.32 92.6188 77.56 92.6188 80.76V172.92ZM271.096 195V62.2C271.096 56.44 271.95 52.6 273.656 50.68C275.576 48.76 279.523 47.8 285.496 47.8H425.656V70.52H313.656V107.64H416.056V130.36H313.656V172.28H425.656V195H271.096ZM538.611 195C529.438 195 522.505 193.187 517.811 189.56C513.118 185.933 509.065 179.853 505.651 171.32L457.651 47.8H504.371L539.571 148.28C540.638 152.12 542.131 154.787 544.051 156.28C546.185 157.773 548.318 158.52 550.451 158.52H553.971L593.971 47.8H625.971L567.731 195H538.611ZM668.096 195C668.096 172.813 668.096 150.733 668.096 128.76C668.096 106.573 668.096 84.3867 668.096 62.2C668.096 59 668.31 56.3333 668.736 54.2C669.163 52.0667 670.336 50.4667 672.256 49.4C674.39 48.3333 677.803 47.8 682.496 47.8H710.656V195H668.096ZM904.769 198.2C899.649 198.2 894.849 197.56 890.369 196.28C885.889 195.213 881.729 193.293 877.889 190.52C876.609 189.24 874.582 187.32 871.809 184.76C869.249 182.2 866.369 179.32 863.169 176.12C859.969 172.707 856.662 169.293 853.249 165.88C850.049 162.467 847.062 159.373 844.289 156.6C841.515 153.613 839.275 151.16 837.569 149.24C835.009 146.68 832.769 144.76 830.849 143.48C829.142 141.987 826.689 140.6 823.489 139.32L811.969 137.4V195H769.409V61.24C769.409 58.2533 769.622 55.8 770.049 53.88C770.689 51.96 771.862 50.4667 773.569 49.4C775.489 48.3333 778.689 47.8 783.169 47.8C788.075 47.8 792.875 47.8 797.569 47.8C802.475 47.8 807.275 47.8 811.969 47.8C811.969 51 811.969 55.0533 811.969 59.96C811.969 64.8667 811.969 70.0933 811.969 75.64C811.969 81.1867 811.969 86.4133 811.969 91.32C811.969 96.2267 811.969 100.173 811.969 103.16L823.809 101.56C825.942 100.92 827.755 100.067 829.249 99C830.742 97.9333 832.449 96.3333 834.369 94.2C837.782 90.5733 841.835 86.52 846.529 82.04C851.222 77.3467 856.129 72.5467 861.249 67.64C866.369 62.7333 870.955 58.36 875.009 54.52C879.062 51.32 883.435 49.1867 888.129 48.12C892.822 47.0533 898.475 46.52 905.089 46.52C909.995 46.52 914.155 46.7333 917.569 47.16C920.982 47.5867 924.502 48.2267 928.129 49.08C927.702 49.2933 926.315 50.5733 923.969 52.92C921.622 55.2667 918.955 57.8267 915.969 60.6C913.195 63.3733 910.955 65.6133 909.249 67.32C902.209 72.8667 894.849 78.7333 887.169 84.92C879.489 90.8933 872.022 96.9733 864.769 103.16C857.515 109.133 851.009 114.893 845.249 120.44L845.889 109.24C850.582 112.867 856.129 117.56 862.529 123.32C868.929 129.08 875.969 135.587 883.649 142.84C891.542 149.88 899.649 157.133 907.969 164.6C916.289 172.067 924.502 179.32 932.609 186.36C931.755 187.427 930.049 188.92 927.489 190.84C925.142 192.76 922.049 194.467 918.209 195.96C914.369 197.453 909.889 198.2 904.769 198.2ZM954.966 195L1002.97 71.48C1005.95 63.5867 1010.33 57.5067 1016.09 53.24C1021.85 48.76 1031.13 46.52 1043.93 46.52C1054.59 46.52 1063.02 48.5467 1069.21 52.6C1075.39 56.6533 1080.19 62.9467 1083.61 71.48L1132.25 195H1085.85L1072.09 159.48H1000.73L987.926 195H954.966ZM1007.77 142.52H1064.09L1045.53 90.68C1044.89 88.5467 1043.93 86.6267 1042.65 84.92C1041.58 83 1039.45 82.04 1036.25 82.04C1032.62 82.04 1030.17 83 1028.89 84.92C1027.82 86.6267 1026.86 88.5467 1026.01 90.68L1007.77 142.52Z"
            fill="#EFEDFF" />
    </g>
    <defs>
        <filter id="filter0_dd_1530_158" x="0.0585938" y="0.52002" width="1182.19" height="251.68"
            filterUnits="userSpaceOnUse" color-interpolation-filters="sRGB">
            <feFlood flood-opacity="0" result="BackgroundImageFix" />
            <feColorMatrix in="SourceAlpha" type="matrix"
                values="0 0 0 0 0 0 0 0 0 0 0 0 0 0 0 0 0 0 127 0" result="hardAlpha" />
            <feOffset dy="4" />
            <feGaussianBlur stdDeviation="2" />
            <feComposite in2="hardAlpha" operator="out" />
            <feColorMatrix type="matrix" values="0 0 0 0 0 0 0 0 0 0 0 0 0 0 0 0 0 0 0.25 0" />
            <feBlend mode="normal" in2="BackgroundImageFix" result="effect1_dropShadow_1530_158" />
            <feColorMatrix in="SourceAlpha" type="matrix"
                values="0 0 0 0 0 0 0 0 0 0 0 0 0 0 0 0 0 0 127 0" result="hardAlpha" />
            <feOffset dy="4" />
            <feGaussianBlur stdDeviation="25" />
            <feComposite in2="hardAlpha" operator="out" />
            <feColorMatrix type="matrix" values="0 0 0 0 0 0 0 0 0 0 0 0 0 0 0 0 0 0 0.1 0" />
            <feBlend mode="normal" in2="effect1_dropShadow_1530_158"
                result="effect2_dropShadow_1530_158" />
            <feBlend mode="normal" in="SourceGraphic" in2="effect2_dropShadow_1530_158"
                result="shape" />
        </filter>
    </defs>
</svg>