<svg width="636" height="286" viewBox="0 0 636 286" fill="none" xmlns="http://www.w3.org/2000/svg">
    <g filter="url(#filter0_dd_1506_73)">
        <path
            d="M141.875 104.432C141.875 112.44 140.991 118.836 139.223 123.62C137.455 128.404 134.803 131.992 131.267 134.384C127.731 136.672 123.259 138.232 117.851 139.064C112.547 139.792 106.307 140.156 99.1314 140.156C94.9714 140.156 90.9154 140.156 86.9634 140.156C83.1154 140.156 79.4234 140.104 75.8874 140C72.3514 140 69.0234 140 65.9034 140C62.8874 140 60.2354 140 57.9474 140V78.38C57.9474 74.844 58.5714 72.296 59.8194 70.736C61.0674 69.176 63.6154 68.344 67.4634 68.24C69.8554 68.24 72.5594 68.24 75.5754 68.24C78.5914 68.136 81.6594 68.084 84.7794 68.084C88.0034 68.084 91.1754 68.084 94.2954 68.084C97.5194 68.084 100.379 68.084 102.875 68.084C109.635 68.188 115.459 68.708 120.347 69.644C125.339 70.58 129.395 72.296 132.515 74.792C135.739 77.288 138.079 80.928 139.535 85.712C141.095 90.392 141.875 96.632 141.875 104.432ZM78.6954 129.236C79.6314 129.236 80.8794 129.236 82.4394 129.236C84.1034 129.236 85.8194 129.288 87.5874 129.392C89.4594 129.392 91.2794 129.392 93.0474 129.392C94.8154 129.392 96.2714 129.392 97.4154 129.392C101.679 129.392 105.267 129.08 108.179 128.456C111.195 127.832 113.587 126.636 115.355 124.868C117.123 122.996 118.423 120.448 119.255 117.224C120.087 113.896 120.503 109.684 120.503 104.588C120.503 97.412 119.775 92.004 118.319 88.364C116.863 84.62 114.471 82.124 111.143 80.876C107.815 79.524 103.187 78.848 97.2594 78.848C95.9074 78.848 94.1394 78.848 91.9554 78.848C89.7714 78.848 87.6394 78.9 85.5594 79.004C83.4794 79.004 81.7114 79.056 80.2554 79.16C79.8394 79.68 79.4754 80.304 79.1634 81.032C78.8514 81.656 78.6954 82.748 78.6954 84.308V129.236ZM165.703 140V75.26C165.703 72.452 166.119 70.58 166.951 69.644C167.887 68.708 169.811 68.24 172.723 68.24H241.051V79.316H186.451V97.412H236.371V108.488H186.451V128.924H241.051V140H165.703ZM296.117 140C291.645 140 288.265 139.116 285.977 137.348C283.689 135.58 281.713 132.616 280.049 128.456L256.649 68.24H279.425L296.585 117.224C297.105 119.096 297.833 120.396 298.769 121.124C299.809 121.852 300.849 122.216 301.889 122.216H303.605L323.105 68.24H338.705L310.313 140H296.117ZM359.241 140C359.241 129.184 359.241 118.42 359.241 107.708C359.241 96.892 359.241 86.076 359.241 75.26C359.241 73.7 359.345 72.4 359.553 71.36C359.761 70.32 360.333 69.54 361.269 69.02C362.309 68.5 363.973 68.24 366.261 68.24H379.989V140H359.241ZM474.619 141.56C472.123 141.56 469.783 141.248 467.599 140.624C465.415 140.104 463.387 139.168 461.515 137.816C460.891 137.192 459.903 136.256 458.551 135.008C457.303 133.76 455.899 132.356 454.339 130.796C452.779 129.132 451.167 127.468 449.503 125.804C447.943 124.14 446.487 122.632 445.135 121.28C443.783 119.824 442.691 118.628 441.859 117.692C440.611 116.444 439.519 115.508 438.583 114.884C437.751 114.156 436.555 113.48 434.995 112.856L429.379 111.92V140H408.631V74.792C408.631 73.336 408.735 72.14 408.943 71.204C409.255 70.268 409.827 69.54 410.659 69.02C411.595 68.5 413.155 68.24 415.339 68.24C417.731 68.24 420.071 68.24 422.359 68.24C424.751 68.24 427.091 68.24 429.379 68.24C429.379 69.8 429.379 71.776 429.379 74.168C429.379 76.56 429.379 79.108 429.379 81.812C429.379 84.516 429.379 87.064 429.379 89.456C429.379 91.848 429.379 93.772 429.379 95.228L435.151 94.448C436.191 94.136 437.075 93.72 437.803 93.2C438.531 92.68 439.363 91.9 440.299 90.86C441.963 89.092 443.939 87.116 446.227 84.932C448.515 82.644 450.907 80.304 453.403 77.912C455.899 75.52 458.135 73.388 460.111 71.516C462.087 69.956 464.219 68.916 466.507 68.396C468.795 67.876 471.551 67.616 474.775 67.616C477.167 67.616 479.195 67.72 480.859 67.928C482.523 68.136 484.239 68.448 486.007 68.864C485.799 68.968 485.123 69.592 483.979 70.736C482.835 71.88 481.535 73.128 480.079 74.48C478.727 75.832 477.635 76.924 476.803 77.756C473.371 80.46 469.783 83.32 466.039 86.336C462.295 89.248 458.655 92.212 455.119 95.228C451.583 98.14 448.411 100.948 445.603 103.652L445.915 98.192C448.203 99.96 450.907 102.248 454.027 105.056C457.147 107.864 460.579 111.036 464.323 114.572C468.171 118.004 472.123 121.54 476.179 125.18C480.235 128.82 484.239 132.356 488.191 135.788C487.775 136.308 486.943 137.036 485.695 137.972C484.551 138.908 483.043 139.74 481.171 140.468C479.299 141.196 477.115 141.56 474.619 141.56ZM499.09 140L522.49 79.784C523.946 75.936 526.078 72.972 528.886 70.892C531.694 68.708 536.218 67.616 542.458 67.616C547.658 67.616 551.766 68.604 554.782 70.58C557.798 72.556 560.138 75.624 561.802 79.784L585.514 140H562.894L556.186 122.684H521.398L515.158 140H499.09ZM524.83 114.416H552.286L543.238 89.144C542.926 88.104 542.458 87.168 541.834 86.336C541.314 85.4 540.274 84.932 538.714 84.932C536.946 84.932 535.75 85.4 535.126 86.336C534.606 87.168 534.138 88.104 533.722 89.144L524.83 114.416Z"
            fill="#1d184a" />
    </g>
    <g filter="url(#filter1_dd_1506_73)">
        <path
            d="M50.2779 223L59.8539 194.704C60.4299 193.072 61.2219 191.824 62.2299 190.96C63.2379 190.048 64.9659 189.592 67.4139 189.592C69.6219 189.592 71.2539 190 72.3099 190.816C73.3659 191.632 74.2059 192.928 74.8299 194.704L84.6219 223H78.6459L75.5499 213.856H57.5499L54.5979 223H50.2779ZM58.4859 211.336H74.5419L69.7899 196.864C69.5499 196.144 69.2379 195.52 68.8539 194.992C68.4699 194.416 67.7019 194.128 66.5499 194.128C65.2539 194.128 64.3899 194.416 63.9579 194.992C63.5739 195.568 63.2859 196.192 63.0939 196.864L58.4859 211.336ZM97.5583 223.288C96.7423 223.288 95.7103 223.264 94.4623 223.216C93.2623 223.168 92.0143 223.072 90.7183 222.928C89.4703 222.736 88.3423 222.472 87.3343 222.136C86.8543 221.944 86.4703 221.752 86.1823 221.56C85.8943 221.368 85.6783 221.032 85.5343 220.552C85.4383 220.072 85.3903 219.352 85.3903 218.392C86.4463 218.92 87.6943 219.352 89.1343 219.688C90.5743 219.976 92.0143 220.168 93.4543 220.264C94.8943 220.36 96.0943 220.408 97.0543 220.408C98.4943 220.408 99.8863 220.36 101.23 220.264C102.622 220.12 103.87 219.856 104.974 219.472C106.078 219.04 106.942 218.416 107.566 217.6C108.238 216.784 108.574 215.704 108.574 214.36C108.574 212.392 108.07 211.144 107.062 210.616C106.054 210.04 104.686 209.752 102.958 209.752H95.6863C93.9103 209.752 92.2303 209.656 90.6463 209.464C89.1103 209.224 87.8383 208.624 86.8303 207.664C85.8703 206.656 85.3903 204.976 85.3903 202.624C85.3903 200.08 86.0143 198.184 87.2623 196.936C88.5103 195.688 90.2623 194.872 92.5183 194.488C94.8223 194.104 97.4863 193.912 100.51 193.912C101.614 193.912 102.934 193.936 104.47 193.984C106.006 194.032 107.47 194.176 108.862 194.416C109.822 194.56 110.614 194.752 111.238 194.992C111.91 195.184 112.39 195.472 112.678 195.856C113.014 196.24 113.182 196.792 113.182 197.512V198.952C112.75 198.472 112.03 198.088 111.022 197.8C110.014 197.512 108.838 197.296 107.494 197.152C106.198 197.008 104.854 196.936 103.462 196.936C102.07 196.888 100.774 196.864 99.5743 196.864C98.0383 196.864 96.5503 196.96 95.1103 197.152C93.6703 197.344 92.4943 197.824 91.5823 198.592C90.7183 199.312 90.2863 200.56 90.2863 202.336C90.2863 203.68 90.5743 204.664 91.1503 205.288C91.7263 205.912 92.4943 206.32 93.4543 206.512C94.4623 206.656 95.5903 206.728 96.8383 206.728H104.254C106.078 206.728 107.686 206.896 109.078 207.232C110.518 207.52 111.622 208.216 112.39 209.32C113.206 210.376 113.614 212.056 113.614 214.36C113.614 216.904 112.918 218.824 111.526 220.12C110.134 221.416 108.214 222.28 105.766 222.712C103.366 223.096 100.63 223.288 97.5583 223.288ZM127.092 223.288C126.276 223.288 125.244 223.264 123.996 223.216C122.796 223.168 121.548 223.072 120.252 222.928C119.004 222.736 117.876 222.472 116.868 222.136C116.388 221.944 116.004 221.752 115.716 221.56C115.428 221.368 115.212 221.032 115.068 220.552C114.972 220.072 114.924 219.352 114.924 218.392C115.98 218.92 117.228 219.352 118.668 219.688C120.108 219.976 121.548 220.168 122.988 220.264C124.428 220.36 125.628 220.408 126.588 220.408C128.028 220.408 129.42 220.36 130.764 220.264C132.156 220.12 133.404 219.856 134.508 219.472C135.612 219.04 136.476 218.416 137.1 217.6C137.772 216.784 138.108 215.704 138.108 214.36C138.108 212.392 137.604 211.144 136.596 210.616C135.588 210.04 134.22 209.752 132.492 209.752H125.22C123.444 209.752 121.764 209.656 120.18 209.464C118.644 209.224 117.372 208.624 116.364 207.664C115.404 206.656 114.924 204.976 114.924 202.624C114.924 200.08 115.548 198.184 116.796 196.936C118.044 195.688 119.796 194.872 122.052 194.488C124.356 194.104 127.02 193.912 130.044 193.912C131.148 193.912 132.468 193.936 134.004 193.984C135.54 194.032 137.004 194.176 138.396 194.416C139.356 194.56 140.148 194.752 140.772 194.992C141.444 195.184 141.924 195.472 142.212 195.856C142.548 196.24 142.716 196.792 142.716 197.512V198.952C142.284 198.472 141.564 198.088 140.556 197.8C139.548 197.512 138.372 197.296 137.028 197.152C135.732 197.008 134.388 196.936 132.996 196.936C131.604 196.888 130.308 196.864 129.108 196.864C127.572 196.864 126.084 196.96 124.644 197.152C123.204 197.344 122.028 197.824 121.116 198.592C120.252 199.312 119.82 200.56 119.82 202.336C119.82 203.68 120.108 204.664 120.684 205.288C121.26 205.912 122.028 206.32 122.988 206.512C123.996 206.656 125.124 206.728 126.372 206.728H133.788C135.612 206.728 137.22 206.896 138.612 207.232C140.052 207.52 141.156 208.216 141.924 209.32C142.74 210.376 143.148 212.056 143.148 214.36C143.148 216.904 142.452 218.824 141.06 220.12C139.668 221.416 137.748 222.28 135.3 222.712C132.9 223.096 130.164 223.288 127.092 223.288ZM152.306 223.288C150.05 223.288 148.538 222.688 147.77 221.488C147.002 220.288 146.618 218.536 146.618 216.232V194.272H151.658V215.944C151.658 217.912 151.874 219.232 152.306 219.904C152.738 220.576 153.506 220.912 154.61 220.912C154.994 220.912 155.474 220.864 156.05 220.768C156.626 220.672 156.986 220.6 157.13 220.552V222.784C156.986 222.832 156.698 222.904 156.266 223C155.882 223.048 155.354 223.096 154.682 223.144C154.058 223.24 153.266 223.288 152.306 223.288ZM149.21 190.096C148.394 190.096 147.746 189.976 147.266 189.736C146.786 189.496 146.546 188.992 146.546 188.224C146.546 187.456 146.762 186.952 147.194 186.712C147.674 186.472 148.322 186.352 149.138 186.352C150.05 186.352 150.722 186.472 151.154 186.712C151.586 186.952 151.778 187.456 151.73 188.224C151.73 188.992 151.514 189.496 151.082 189.736C150.65 189.976 150.026 190.096 149.21 190.096ZM169.215 223.288C168.399 223.288 167.367 223.264 166.119 223.216C164.919 223.168 163.671 223.072 162.375 222.928C161.127 222.736 159.999 222.472 158.991 222.136C158.511 221.944 158.127 221.752 157.839 221.56C157.551 221.368 157.335 221.032 157.191 220.552C157.095 220.072 157.047 219.352 157.047 218.392C158.103 218.92 159.351 219.352 160.791 219.688C162.231 219.976 163.671 220.168 165.111 220.264C166.551 220.36 167.751 220.408 168.711 220.408C170.151 220.408 171.543 220.36 172.887 220.264C174.279 220.12 175.527 219.856 176.631 219.472C177.735 219.04 178.599 218.416 179.223 217.6C179.895 216.784 180.231 215.704 180.231 214.36C180.231 212.392 179.727 211.144 178.719 210.616C177.711 210.04 176.343 209.752 174.615 209.752H167.343C165.567 209.752 163.887 209.656 162.303 209.464C160.767 209.224 159.495 208.624 158.487 207.664C157.527 206.656 157.047 204.976 157.047 202.624C157.047 200.08 157.671 198.184 158.919 196.936C160.167 195.688 161.919 194.872 164.175 194.488C166.479 194.104 169.143 193.912 172.167 193.912C173.271 193.912 174.591 193.936 176.127 193.984C177.663 194.032 179.127 194.176 180.519 194.416C181.479 194.56 182.271 194.752 182.895 194.992C183.567 195.184 184.047 195.472 184.335 195.856C184.671 196.24 184.839 196.792 184.839 197.512V198.952C184.407 198.472 183.687 198.088 182.679 197.8C181.671 197.512 180.495 197.296 179.151 197.152C177.855 197.008 176.511 196.936 175.119 196.936C173.727 196.888 172.431 196.864 171.231 196.864C169.695 196.864 168.207 196.96 166.767 197.152C165.327 197.344 164.151 197.824 163.239 198.592C162.375 199.312 161.943 200.56 161.943 202.336C161.943 203.68 162.231 204.664 162.807 205.288C163.383 205.912 164.151 206.32 165.111 206.512C166.119 206.656 167.247 206.728 168.495 206.728H175.911C177.735 206.728 179.343 206.896 180.735 207.232C182.175 207.52 183.279 208.216 184.047 209.32C184.863 210.376 185.271 212.056 185.271 214.36C185.271 216.904 184.575 218.824 183.183 220.12C181.791 221.416 179.871 222.28 177.423 222.712C175.023 223.096 172.287 223.288 169.215 223.288ZM195.869 223.216C194.237 223.216 192.965 223.024 192.053 222.64C191.141 222.208 190.469 221.488 190.037 220.48C189.605 219.472 189.389 218.104 189.389 216.376V197.08H186.653V194.272H189.389V189.088C189.389 188.368 189.437 187.84 189.533 187.504C189.677 187.12 189.893 186.88 190.181 186.784C190.469 186.688 190.877 186.64 191.405 186.64H194.501C194.501 186.736 194.477 186.952 194.429 187.288C194.429 187.576 194.429 188.008 194.429 188.584V194.272H201.125V197.08H194.429V215.8C194.429 217.672 194.621 218.992 195.005 219.76C195.389 220.528 196.253 220.912 197.597 220.912C198.125 220.912 198.677 220.864 199.253 220.768C199.829 220.672 200.237 220.576 200.477 220.48V222.712C200.189 222.76 199.637 222.856 198.821 223C198.005 223.144 197.021 223.216 195.869 223.216ZM209.83 223.288C207.574 223.288 206.062 222.688 205.294 221.488C204.526 220.288 204.142 218.536 204.142 216.232V194.272H209.182V215.944C209.182 217.912 209.398 219.232 209.83 219.904C210.262 220.576 211.03 220.912 212.134 220.912C212.518 220.912 212.998 220.864 213.574 220.768C214.15 220.672 214.51 220.6 214.654 220.552V222.784C214.51 222.832 214.222 222.904 213.79 223C213.406 223.048 212.878 223.096 212.206 223.144C211.582 223.24 210.79 223.288 209.83 223.288ZM206.734 190.096C205.918 190.096 205.27 189.976 204.79 189.736C204.31 189.496 204.07 188.992 204.07 188.224C204.07 187.456 204.286 186.952 204.718 186.712C205.198 186.472 205.846 186.352 206.662 186.352C207.574 186.352 208.246 186.472 208.678 186.712C209.11 186.952 209.302 187.456 209.254 188.224C209.254 188.992 209.038 189.496 208.606 189.736C208.174 189.976 207.55 190.096 206.734 190.096ZM218.315 223C217.211 223 216.659 222.424 216.659 221.272V196.36C218.051 195.736 219.875 195.184 222.131 194.704C224.435 194.224 227.075 193.984 230.051 193.984C232.835 193.984 235.091 194.176 236.819 194.56C238.547 194.944 239.867 195.52 240.779 196.288C241.691 197.056 242.291 198.064 242.579 199.312C242.915 200.512 243.083 201.976 243.083 203.704V220.84C243.083 221.368 243.011 221.8 242.867 222.136C242.771 222.472 242.555 222.712 242.219 222.856C241.931 222.952 241.475 223 240.851 223H238.043V202.696C238.043 200.776 237.419 199.36 236.171 198.448C234.923 197.536 232.883 197.08 230.051 197.08C229.139 197.08 228.131 197.152 227.027 197.296C225.971 197.44 224.963 197.656 224.003 197.944C223.043 198.184 222.251 198.52 221.627 198.952V223H218.315ZM260.683 231.208C259.627 231.208 258.427 231.16 257.083 231.064C255.787 231.016 254.539 230.872 253.339 230.632C252.139 230.44 251.131 230.128 250.315 229.696C249.547 229.312 249.163 228.808 249.163 228.184C249.163 227.992 249.163 227.752 249.163 227.464C249.163 227.176 249.163 226.984 249.163 226.888C249.835 227.224 250.795 227.536 252.043 227.824C253.339 228.112 254.707 228.328 256.147 228.472C257.587 228.616 258.835 228.688 259.891 228.688C262.675 228.688 264.835 228.28 266.371 227.464C267.907 226.648 268.939 225.28 269.467 223.36C270.043 221.488 270.259 218.992 270.115 215.872H271.195C270.715 217.504 269.899 218.752 268.747 219.616C267.595 220.48 266.227 221.08 264.643 221.416C263.059 221.752 261.355 221.92 259.531 221.92C256.747 221.92 254.443 221.608 252.619 220.984C250.795 220.312 249.451 219.016 248.587 217.096C247.723 215.128 247.291 212.248 247.291 208.456C247.291 205.384 247.555 202.912 248.083 201.04C248.659 199.12 249.547 197.656 250.747 196.648C251.947 195.64 253.507 194.968 255.427 194.632C257.395 194.248 259.771 194.056 262.555 194.056C263.611 194.056 264.787 194.104 266.083 194.2C267.379 194.296 268.675 194.392 269.971 194.488C271.267 194.536 272.395 194.608 273.355 194.704C274.363 194.8 275.035 194.896 275.371 194.992C275.323 195.136 275.275 195.544 275.227 196.216C275.179 196.84 275.155 197.584 275.155 198.448C275.155 199.264 275.155 200.056 275.155 200.824V217.888C275.155 221.248 274.651 223.888 273.643 225.808C272.683 227.776 271.147 229.168 269.035 229.984C266.923 230.8 264.139 231.208 260.683 231.208ZM260.683 218.896C262.459 218.896 264.043 218.704 265.435 218.32C266.827 217.888 267.955 217.216 268.819 216.304C269.683 215.344 270.115 214.072 270.115 212.488V197.656C269.683 197.56 268.699 197.44 267.163 197.296C265.627 197.104 263.851 197.008 261.835 197.008C259.483 197.008 257.635 197.32 256.291 197.944C254.947 198.52 253.963 199.6 253.339 201.184C252.763 202.72 252.475 204.952 252.475 207.88C252.475 210.856 252.739 213.16 253.267 214.792C253.795 216.376 254.659 217.456 255.859 218.032C257.059 218.608 258.667 218.896 260.683 218.896ZM308.572 230.992C306.412 230.992 304.372 230.872 302.452 230.632C300.532 230.44 298.972 230.128 297.772 229.696C296.572 229.264 295.972 228.784 295.972 228.256V226.456C296.74 226.888 297.748 227.248 298.996 227.536C300.292 227.824 301.66 228.04 303.1 228.184C304.54 228.376 305.932 228.472 307.276 228.472C309.58 228.472 311.452 228.16 312.892 227.536C314.38 226.912 315.484 225.904 316.204 224.512C316.972 223.12 317.356 221.368 317.356 219.256V215.368C316.924 216.328 316.228 217.144 315.268 217.816C314.308 218.488 313.108 218.968 311.668 219.256C310.276 219.544 308.644 219.688 306.772 219.688C303.364 219.688 300.844 219.208 299.212 218.248C297.628 217.288 296.596 215.92 296.116 214.144C295.684 212.368 295.468 210.304 295.468 207.952V197.08C295.468 196.36 295.492 195.808 295.54 195.424C295.636 194.992 295.804 194.704 296.044 194.56C296.332 194.368 296.788 194.272 297.412 194.272H300.58C300.58 195.52 300.58 196.72 300.58 197.872C300.58 198.976 300.58 200.08 300.58 201.184C300.58 202.24 300.58 203.32 300.58 204.424C300.58 205.528 300.58 206.704 300.58 207.952C300.58 210.688 300.94 212.704 301.66 214C302.428 215.296 303.436 216.112 304.684 216.448C305.98 216.784 307.396 216.952 308.932 216.952C310.468 216.952 311.86 216.76 313.108 216.376C314.356 215.944 315.364 215.128 316.132 213.928C316.9 212.728 317.284 210.928 317.284 208.528V194.272H320.38C321.1 194.272 321.604 194.392 321.892 194.632C322.228 194.824 322.396 195.424 322.396 196.432V218.68C322.396 222.952 321.268 226.072 319.012 228.04C316.804 230.008 313.324 230.992 308.572 230.992ZM340.59 223.432C338.382 223.432 336.39 223.264 334.614 222.928C332.886 222.592 331.374 221.92 330.078 220.912C328.83 219.904 327.87 218.416 327.198 216.448C326.526 214.48 326.19 211.888 326.19 208.672C326.19 205.456 326.526 202.864 327.198 200.896C327.87 198.928 328.83 197.44 330.078 196.432C331.374 195.424 332.886 194.752 334.614 194.416C336.39 194.08 338.382 193.912 340.59 193.912C342.75 193.912 344.694 194.08 346.422 194.416C348.198 194.752 349.71 195.424 350.958 196.432C352.206 197.44 353.166 198.928 353.838 200.896C354.51 202.864 354.846 205.456 354.846 208.672C354.846 211.936 354.51 214.552 353.838 216.52C353.166 218.488 352.206 219.976 350.958 220.984C349.71 221.944 348.198 222.592 346.422 222.928C344.694 223.264 342.75 223.432 340.59 223.432ZM340.59 220.624C342.51 220.624 344.142 220.336 345.486 219.76C346.878 219.184 347.934 218.056 348.654 216.376C349.374 214.696 349.734 212.128 349.734 208.672C349.734 205.216 349.374 202.648 348.654 200.968C347.934 199.288 346.878 198.16 345.486 197.584C344.142 197.008 342.51 196.72 340.59 196.72C338.67 196.72 337.014 197.008 335.622 197.584C334.278 198.16 333.222 199.288 332.454 200.968C331.734 202.648 331.374 205.216 331.374 208.672C331.374 212.128 331.734 214.696 332.454 216.376C333.222 218.056 334.278 219.184 335.622 219.76C337.014 220.336 338.67 220.624 340.59 220.624ZM363.87 194.272V213.784C363.87 216.184 364.542 217.888 365.886 218.896C367.278 219.856 369.39 220.336 372.222 220.336C375.246 220.336 377.406 219.832 378.702 218.824C380.046 217.768 380.718 216.088 380.718 213.784V194.272C380.766 194.272 380.91 194.272 381.15 194.272C381.438 194.272 381.726 194.272 382.014 194.272C382.35 194.272 382.662 194.272 382.95 194.272C383.238 194.272 383.43 194.272 383.526 194.272C384.102 194.272 384.558 194.32 384.894 194.416C385.23 194.464 385.446 194.632 385.542 194.92C385.686 195.208 385.758 195.688 385.758 196.36V212.848C385.758 215.248 385.398 217.24 384.678 218.824C383.958 220.36 382.614 221.512 380.646 222.28C378.678 223 375.846 223.36 372.15 223.36C368.79 223.36 366.126 223.048 364.158 222.424C362.238 221.8 360.87 220.744 360.054 219.256C359.238 217.768 358.83 215.752 358.83 213.208V196.36C358.83 195.544 358.95 194.992 359.19 194.704C359.478 194.416 360.006 194.272 360.774 194.272C361.302 194.272 361.806 194.272 362.286 194.272C362.814 194.272 363.342 194.272 363.87 194.272ZM395.88 223H392.712C392.088 223 391.608 222.856 391.272 222.568C390.984 222.232 390.84 221.632 390.84 220.768V195.712C391.896 195.376 393.336 195.016 395.16 194.632C397.032 194.248 399.336 194.056 402.072 194.056C404.664 194.056 406.704 194.248 408.192 194.632C409.728 194.968 410.832 195.448 411.504 196.072C412.224 196.696 412.68 197.464 412.872 198.376C413.112 199.24 413.232 200.224 413.232 201.328H408.408L408.336 200.32C408.288 199.216 407.928 198.424 407.256 197.944C406.584 197.416 405.792 197.104 404.88 197.008C403.968 196.864 403.056 196.792 402.144 196.792C400.752 196.792 399.504 196.912 398.4 197.152C397.344 197.392 396.504 197.704 395.88 198.088V223ZM428.601 223L438.177 194.704C438.753 193.072 439.545 191.824 440.553 190.96C441.561 190.048 443.289 189.592 445.737 189.592C447.945 189.592 449.577 190 450.633 190.816C451.689 191.632 452.529 192.928 453.153 194.704L462.945 223H456.969L453.873 213.856H435.873L432.921 223H428.601ZM436.809 211.336H452.865L448.113 196.864C447.873 196.144 447.561 195.52 447.177 194.992C446.793 194.416 446.025 194.128 444.873 194.128C443.577 194.128 442.713 194.416 442.281 194.992C441.897 195.568 441.609 196.192 441.417 196.864L436.809 211.336ZM467.458 223C467.458 217.864 467.458 212.728 467.458 207.592C467.458 202.456 467.458 197.32 467.458 192.184C467.458 191.656 467.482 191.248 467.53 190.96C467.626 190.624 467.794 190.36 468.034 190.168C468.322 189.976 468.778 189.88 469.402 189.88H473.002V223H467.458ZM497.698 223C497.698 217.864 497.698 212.728 497.698 207.592C497.698 202.456 497.698 197.32 497.698 192.184C497.698 191.656 497.722 191.248 497.77 190.96C497.866 190.624 498.034 190.36 498.274 190.168C498.562 189.976 499.018 189.88 499.642 189.88H503.242V223H497.698ZM546.382 206.728C546.382 210.664 545.95 213.76 545.086 216.016C544.222 218.224 542.974 219.832 541.342 220.84C539.758 221.848 537.79 222.496 535.438 222.784C533.134 223.024 530.518 223.144 527.59 223.144C526.198 223.144 524.734 223.12 523.198 223.072C521.71 223.072 520.222 223.072 518.734 223.072C517.294 223.072 515.974 223.048 514.774 223C513.622 223 512.686 223 511.966 223V194.488C511.966 192.952 512.158 191.824 512.542 191.104C512.974 190.384 514.054 189.976 515.782 189.88C516.55 189.832 517.558 189.808 518.806 189.808C520.054 189.808 521.374 189.808 522.766 189.808C524.206 189.76 525.598 189.736 526.942 189.736C528.286 189.736 529.414 189.76 530.326 189.808C532.966 189.904 535.27 190.12 537.238 190.456C539.254 190.792 540.934 191.512 542.278 192.616C543.67 193.72 544.702 195.4 545.374 197.656C546.046 199.864 546.382 202.888 546.382 206.728ZM517.51 219.904C517.846 219.904 518.446 219.928 519.31 219.976C520.222 219.976 521.206 219.976 522.262 219.976C523.318 219.976 524.326 220 525.286 220.048C526.294 220.048 527.062 220.048 527.59 220.048C530.038 220.048 532.102 219.88 533.782 219.544C535.462 219.208 536.806 218.584 537.814 217.672C538.87 216.712 539.614 215.368 540.046 213.64C540.526 211.864 540.766 209.56 540.766 206.728C540.766 202.888 540.358 199.984 539.542 198.016C538.774 196 537.454 194.632 535.582 193.912C533.758 193.192 531.19 192.832 527.878 192.832C527.206 192.832 526.246 192.832 524.998 192.832C523.798 192.832 522.598 192.856 521.398 192.904C520.198 192.904 519.262 192.952 518.59 193.048C518.254 193.24 517.99 193.504 517.798 193.84C517.606 194.128 517.51 194.728 517.51 195.64V219.904ZM552.688 223V192.184C552.688 191.32 552.808 190.72 553.048 190.384C553.288 190.048 553.816 189.88 554.632 189.88H583.216V193.048H558.232V204.064H581.128V207.232H558.232V219.832H583.216V223H552.688Z"
            fill="#1d184a" />
    </g>
    <defs>
        <filter id="filter0_dd_1506_73" x="7.94727" y="21.616" width="627.566" height="173.944"
            filterUnits="userSpaceOnUse" color-interpolation-filters="sRGB">
            <feFlood flood-opacity="0" result="BackgroundImageFix" />
            <feColorMatrix in="SourceAlpha" type="matrix"
                values="0 0 0 0 0 0 0 0 0 0 0 0 0 0 0 0 0 0 127 0" result="hardAlpha" />
            <feOffset dy="4" />
            <feGaussianBlur stdDeviation="2" />
            <feComposite in2="hardAlpha" operator="out" />
            <feColorMatrix type="matrix" values="0 0 0 0 0 0 0 0 0 0 0 0 0 0 0 0 0 0 0.25 0" />
            <feBlend mode="normal" in2="BackgroundImageFix" result="effect1_dropShadow_1506_73" />
            <feColorMatrix in="SourceAlpha" type="matrix"
                values="0 0 0 0 0 0 0 0 0 0 0 0 0 0 0 0 0 0 127 0" result="hardAlpha" />
            <feOffset dy="4" />
            <feGaussianBlur stdDeviation="25" />
            <feComposite in2="hardAlpha" operator="out" />
            <feColorMatrix type="matrix" values="0 0 0 0 0 0 0 0 0 0 0 0 0 0 0 0 0 0 0.1 0" />
            <feBlend mode="normal" in2="effect1_dropShadow_1506_73"
                result="effect2_dropShadow_1506_73" />
            <feBlend mode="normal" in="SourceGraphic" in2="effect2_dropShadow_1506_73"
                result="shape" />
        </filter>
        <filter id="filter1_dd_1506_73" x="0.277344" y="140.352" width="632.938" height="144.856"
            filterUnits="userSpaceOnUse" color-interpolation-filters="sRGB">
            <feFlood flood-opacity="0" result="BackgroundImageFix" />
            <feColorMatrix in="SourceAlpha" type="matrix"
                values="0 0 0 0 0 0 0 0 0 0 0 0 0 0 0 0 0 0 127 0" result="hardAlpha" />
            <feOffset dy="4" />
            <feGaussianBlur stdDeviation="2" />
            <feComposite in2="hardAlpha" operator="out" />
            <feColorMatrix type="matrix" values="0 0 0 0 0 0 0 0 0 0 0 0 0 0 0 0 0 0 0.25 0" />
            <feBlend mode="normal" in2="BackgroundImageFix" result="effect1_dropShadow_1506_73" />
            <feColorMatrix in="SourceAlpha" type="matrix"
                values="0 0 0 0 0 0 0 0 0 0 0 0 0 0 0 0 0 0 127 0" result="hardAlpha" />
            <feOffset dy="4" />
            <feGaussianBlur stdDeviation="25" />
            <feComposite in2="hardAlpha" operator="out" />
            <feColorMatrix type="matrix" values="0 0 0 0 0 0 0 0 0 0 0 0 0 0 0 0 0 0 0.1 0" />
            <feBlend mode="normal" in2="effect1_dropShadow_1506_73"
                result="effect2_dropShadow_1506_73" />
            <feBlend mode="normal" in="SourceGraphic" in2="effect2_dropShadow_1506_73"
                result="shape" />
        </filter>
    </defs>
</svg>